<?xml version="1.0" encoding="utf-8"?>
<!-- Generator: Adobe Illustrator 17.0.2, SVG Export Plug-In . SVG Version: 6.00 Build 0)  -->
<!DOCTYPE svg PUBLIC "-//W3C//DTD SVG 1.0//EN" "http://www.w3.org/TR/2001/REC-SVG-20010904/DTD/svg10.dtd">
<svg version="1.0" id="Layer_1" xmlns="http://www.w3.org/2000/svg" xmlns:xlink="http://www.w3.org/1999/xlink" x="0px" y="0px"
	 width="30px" height="30px" viewBox="0 0 30 30" enable-background="new 0 0 30 30" xml:space="preserve">
<path fill="#603813" stroke="#42210B" stroke-width="0.5" stroke-miterlimit="10" d="M26.703,10.278
	c-0.865,0.592-1.91,0.941-3.038,0.941c-2.976,0-5.388-2.412-5.388-5.388c0-1.019,0.299-1.961,0.791-2.774
	C17.79,2.622,16.425,2.375,15,2.375c-3.091,0-5.919,1.115-8.114,2.959C7.566,5.954,8,6.838,8,7.83c0,1.872-1.517,3.389-3.389,3.389
	c-0.55,0-1.062-0.143-1.521-0.376C2.635,12.146,2.375,13.541,2.375,15c0,2.416,0.691,4.665,1.868,6.584
	c0.878-0.809,2.041-1.315,3.329-1.315c2.722,0,4.928,2.206,4.928,4.928c0,0.739-0.174,1.434-0.466,2.063
	c0.953,0.23,1.943,0.365,2.966,0.365c6.973,0,12.625-5.652,12.625-12.625C27.625,13.329,27.293,11.738,26.703,10.278z
	 M10.125,12.125c-1.105,0-2-0.895-2-2s0.895-2,2-2s2,0.895,2,2S11.23,12.125,10.125,12.125z M18.277,17.125
	c-1.174,0-2.125-0.951-2.125-2.125s0.951-2.125,2.125-2.125s2.125,0.951,2.125,2.125S19.451,17.125,18.277,17.125z"/>
<circle fill="#42210B" cx="13.438" cy="17.271" r="1.312"/>
<circle fill="#42210B" cx="24.083" cy="16" r="1"/>
</svg>
