<?xml version="1.0" encoding="utf-8"?>
<!-- Generator: Adobe Illustrator 17.0.2, SVG Export Plug-In . SVG Version: 6.00 Build 0)  -->
<!DOCTYPE svg PUBLIC "-//W3C//DTD SVG 1.1//EN" "http://www.w3.org/Graphics/SVG/1.1/DTD/svg11.dtd">
<svg version="1.1" id="Layer_1" xmlns="http://www.w3.org/2000/svg" xmlns:xlink="http://www.w3.org/1999/xlink" x="0px" y="0px"
	 width="320px" height="480px" viewBox="0 0 320 480" enable-background="new 0 0 320 480" xml:space="preserve">
<rect width="320" height="480"/>
<ellipse opacity="0.6" fill="#FFFFA6" cx="70.875" cy="146.266" rx="1.432" ry="2.078"/>
<ellipse opacity="0.4" fill="#FFFFA6" cx="180.875" cy="203.344" rx="1.432" ry="4.156"/>
<ellipse opacity="0.6" fill="#FFFFA6" cx="93.721" cy="293.26" rx="2.424" ry="3.073"/>
<ellipse transform="matrix(0.15 -0.9887 0.9887 0.15 -106.1004 491.3557)" opacity="0.7" fill="#FFFFA6" cx="232.708" cy="307.383" rx="3.67" ry="1.268"/>
<ellipse opacity="0.6" fill="#FFFFA6" cx="284.875" cy="104.094" rx="1.432" ry="2.906"/>
<ellipse opacity="0.6" fill="#FFFF88" cx="177.875" cy="48.37" rx="1.432" ry="3.13"/>
<ellipse opacity="0.8" fill="#FFFFA6" cx="19.875" cy="240.344" rx="1.432" ry="4.156"/>
<ellipse fill="#FFFFA6" cx="60.875" cy="410.094" rx="1.432" ry="2.906"/>
<ellipse opacity="0.6" fill="#FFFFA6" cx="266.279" cy="405.516" rx="0.861" ry="1.984"/>
<path opacity="0.5" fill="#603813" stroke="#42210B" stroke-width="0.5" stroke-miterlimit="10" d="M37.401,340.33
	c-0.845-0.16-1.652-0.567-2.301-1.224c-1.712-1.733-1.684-4.538,0.064-6.265c0.599-0.591,1.324-0.964,2.084-1.149
	c-0.48-0.997-1.12-1.935-1.94-2.765c-1.779-1.8-4.061-2.801-6.407-3.009c0.027,0.756-0.242,1.522-0.825,2.097
	c-1.1,1.086-2.863,1.083-3.941-0.008c-0.316-0.32-0.527-0.702-0.654-1.104c-1.027,0.491-1.996,1.149-2.853,1.995
	c-1.419,1.402-2.342,3.109-2.792,4.908c0.98,0.042,1.947,0.426,2.688,1.176c1.566,1.586,1.54,4.15-0.059,5.73
	c-0.434,0.429-0.942,0.731-1.48,0.926c0.413,0.689,0.904,1.344,1.492,1.939c4.012,4.062,10.584,4.075,14.68,0.029
	C36.14,342.637,36.883,341.521,37.401,340.33z M26.777,331.745c-0.636-0.644-0.625-1.684,0.024-2.325
	c0.649-0.641,1.69-0.639,2.326,0.005c0.636,0.644,0.625,1.684-0.024,2.325S27.413,332.389,26.777,331.745z M28.531,339.395
	c-0.676-0.684-0.664-1.79,0.025-2.471s1.795-0.679,2.471,0.005s0.664,1.79-0.025,2.471
	C30.312,340.081,29.207,340.079,28.531,339.395z"/>
<path opacity="0.5" fill="#603813" stroke="#42210B" stroke-width="0.5" stroke-miterlimit="10" d="M327.279,84.159
	c-0.789,0.344-1.684,0.462-2.59,0.285c-2.391-0.468-3.947-2.801-3.476-5.212c0.161-0.826,0.551-1.542,1.075-2.123
	c-0.958-0.553-2.016-0.968-3.161-1.192c-2.484-0.486-4.933-0.027-6.989,1.123c0.448,0.609,0.657,1.394,0.5,2.197
	c-0.297,1.517-1.756,2.508-3.26,2.214c-0.442-0.086-0.831-0.283-1.163-0.544c-0.572,0.984-1.002,2.074-1.233,3.256
	c-0.383,1.958-0.184,3.888,0.458,5.628c0.834-0.518,1.848-0.745,2.883-0.542c2.187,0.428,3.61,2.562,3.179,4.767
	c-0.117,0.599-0.367,1.135-0.701,1.598c0.729,0.336,1.504,0.601,2.326,0.762c5.603,1.096,11.04-2.596,12.145-8.246
	C327.536,86.776,327.522,85.435,327.279,84.159z M313.665,83.051c-0.888-0.174-1.465-1.039-1.29-1.935s1.036-1.48,1.924-1.306
	c0.888,0.174,1.465,1.039,1.29,1.935S314.553,83.225,313.665,83.051z M319.423,88.383c-0.943-0.184-1.557-1.104-1.371-2.056
	s1.101-1.572,2.044-1.388c0.943,0.184,1.557,1.104,1.371,2.056C321.281,87.947,320.367,88.568,319.423,88.383z"/>
<circle opacity="0.6" fill="#42210B" cx="28.354" cy="336.818" r="1.312"/>
<circle opacity="0.6" fill="#42210B" cx="36.74" cy="343.498" r="1"/>
</svg>
