<?xml version="1.0" encoding="utf-8"?>
<!-- Generator: Adobe Illustrator 17.0.2, SVG Export Plug-In . SVG Version: 6.00 Build 0)  -->
<!DOCTYPE svg PUBLIC "-//W3C//DTD SVG 1.0//EN" "http://www.w3.org/TR/2001/REC-SVG-20010904/DTD/svg10.dtd">
<svg version="1.0" id="Layer_1" xmlns="http://www.w3.org/2000/svg" xmlns:xlink="http://www.w3.org/1999/xlink" x="0px" y="0px"
	 width="320px" height="480px" viewBox="0 0 320 480" enable-background="new 0 0 320 480" xml:space="preserve">
<rect x="31" y="35" stroke="#4D4D4D" stroke-width="6" stroke-miterlimit="10" width="258" height="307"/>
<ellipse fill="#2E3192" stroke="#1B1464" stroke-width="0.5" stroke-miterlimit="10" cx="82.043" cy="214.97" rx="15.448" ry="14.874"/>
<ellipse fill="#004CBC" cx="82.043" cy="214.97" rx="10.881" ry="10.477"/>
<ellipse fill="#29ABE2" cx="82.043" cy="214.97" rx="4.567" ry="4.398"/>
<ellipse fill="#8CC63F" stroke="#AEC63F" stroke-width="0.5" stroke-miterlimit="10" cx="82.043" cy="128.183" rx="15.448" ry="14.874"/>
<ellipse fill="#8CC686" cx="82.043" cy="128.183" rx="10.881" ry="10.477"/>
<ellipse fill="#C0F5C4" cx="82.043" cy="128.183" rx="4.567" ry="4.398"/>
<ellipse fill="#FCC60F" stroke="#FC9C0F" stroke-width="0.5" stroke-miterlimit="10" cx="82.043" cy="258.299" rx="15.448" ry="14.874"/>
<ellipse fill="#FCEE21" cx="82.043" cy="258.299" rx="10.881" ry="10.477"/>
<ellipse fill="#FCEE21" cx="82.043" cy="258.299" rx="4.567" ry="4.398"/>
<polygon fill="#4A1B21" points="86.611,257.23 83.79,257.23 84.816,246.883 80.163,246.883 80.163,259.299 81.677,259.299 
	80.776,269.716 "/>
<ellipse fill="#83272D" stroke="#58020B" stroke-width="0.5" stroke-miterlimit="10" cx="82.043" cy="170.822" rx="15.448" ry="14.874"/>
<ellipse fill="#A0272D" cx="82.043" cy="170.822" rx="10.881" ry="10.477"/>
<ellipse fill="#ED1C24" cx="82.043" cy="170.822" rx="4.567" ry="4.398"/>
<rect x="43.451" y="35" fill="none" width="236.093" height="79.885"/>
<g enable-background="new    ">
	<path fill="#FFFFFF" d="M76.223,80.57h-9.352v-2.726h2.617v-9.922h-2.617v-2.726h9.352v2.726h-2.617v9.922h2.617V80.57z"/>
	<path fill="#FFFFFF" d="M94.1,80.57h-3.968l-6.777-10.552V80.57H79.58V65.195h4.922l5.823,8.808v-8.808H94.1V80.57z"/>
	<path fill="#FFFFFF" d="M110.958,75.738c0,1.514-0.667,2.745-2,3.691c-1.333,0.947-3.144,1.42-5.432,1.42
		c-1.323,0-2.476-0.112-3.458-0.335s-1.903-0.508-2.761-0.852v-3.686h0.45c0.851,0.654,1.803,1.156,2.858,1.507
		s2.068,0.527,3.041,0.527c0.25,0,0.579-0.021,0.986-0.062c0.408-0.042,0.74-0.11,0.998-0.207c0.314-0.124,0.574-0.279,0.777-0.465
		c0.204-0.186,0.306-0.461,0.306-0.826c0-0.337-0.148-0.628-0.445-0.873c-0.296-0.244-0.731-0.432-1.303-0.563
		c-0.601-0.137-1.235-0.267-1.903-0.387c-0.669-0.12-1.296-0.273-1.882-0.459c-1.344-0.419-2.311-0.989-2.901-1.708
		c-0.589-0.719-0.884-1.612-0.884-2.68c0-1.432,0.667-2.6,2-3.505c1.333-0.905,3.047-1.357,5.142-1.357
		c1.051,0,2.089,0.098,3.116,0.294c1.025,0.196,1.914,0.442,2.665,0.738v3.542h-0.439c-0.644-0.496-1.432-0.91-2.365-1.244
		c-0.933-0.333-1.886-0.5-2.858-0.5c-0.343,0-0.685,0.022-1.024,0.067c-0.34,0.045-0.667,0.129-0.981,0.253
		c-0.279,0.104-0.519,0.26-0.718,0.47c-0.2,0.21-0.3,0.449-0.3,0.718c0,0.406,0.161,0.718,0.482,0.935s0.929,0.415,1.823,0.593
		c0.586,0.117,1.149,0.231,1.689,0.341c0.54,0.11,1.121,0.262,1.743,0.455c1.222,0.385,2.125,0.91,2.708,1.575
		C110.666,73.815,110.958,74.678,110.958,75.738z"/>
	<path fill="#FFFFFF" d="M126.271,68.169h-4.987v12.4h-4.118v-12.4h-4.987v-2.974h14.091V68.169z"/>
	<path fill="#FFFFFF" d="M144.126,80.57h-5.03l-4.344-5.638h-1.908v5.638h-4.096V65.195h6.906c0.943,0,1.755,0.052,2.434,0.155
		c0.679,0.103,1.315,0.327,1.909,0.671c0.601,0.344,1.078,0.79,1.432,1.337c0.354,0.547,0.531,1.234,0.531,2.06
		c0,1.136-0.273,2.062-0.82,2.778c-0.547,0.716-1.328,1.311-2.343,1.786L144.126,80.57z M137.702,69.904
		c0-0.385-0.082-0.716-0.247-0.991s-0.447-0.492-0.847-0.65c-0.279-0.11-0.604-0.177-0.976-0.201
		c-0.372-0.024-0.805-0.037-1.298-0.037h-1.491v4.141h1.266c0.658,0,1.208-0.031,1.651-0.093s0.815-0.203,1.115-0.423
		c0.286-0.213,0.495-0.449,0.627-0.708C137.636,70.684,137.702,70.337,137.702,69.904z"/>
	<path fill="#FFFFFF" d="M159.912,75.004c0,1.9-0.601,3.356-1.802,4.368s-2.971,1.518-5.308,1.518c-2.338,0-4.105-0.506-5.303-1.518
		c-1.197-1.012-1.796-2.464-1.796-4.357v-9.819h4.139v9.592c0,1.067,0.232,1.862,0.697,2.385c0.464,0.523,1.219,0.785,2.263,0.785
		c1.029,0,1.782-0.251,2.257-0.754c0.475-0.502,0.713-1.308,0.713-2.416v-9.592h4.14V75.004z"/>
	<path fill="#FFFFFF" d="M170.979,80.869c-1.188,0-2.283-0.168-3.287-0.506c-1.004-0.337-1.867-0.84-2.59-1.507
		s-1.281-1.5-1.678-2.499c-0.397-0.998-0.596-2.151-0.596-3.459c0-1.218,0.189-2.323,0.568-3.314s0.93-1.841,1.651-2.551
		c0.693-0.681,1.554-1.208,2.579-1.58s2.146-0.558,3.361-0.558c0.673,0,1.278,0.036,1.818,0.108
		c0.539,0.072,1.039,0.167,1.496,0.284c0.479,0.131,0.913,0.277,1.303,0.438c0.39,0.162,0.73,0.312,1.024,0.449v3.728h-0.472
		c-0.201-0.164-0.453-0.359-0.756-0.585c-0.305-0.226-0.649-0.449-1.035-0.668c-0.394-0.219-0.818-0.404-1.276-0.555
		c-0.458-0.15-0.947-0.226-1.47-0.226c-0.578,0-1.129,0.088-1.65,0.263c-0.522,0.175-1.005,0.465-1.448,0.871
		c-0.422,0.392-0.763,0.91-1.024,1.556c-0.261,0.646-0.391,1.429-0.391,2.35c0,0.961,0.141,1.765,0.424,2.411
		c0.281,0.646,0.637,1.154,1.066,1.525c0.436,0.377,0.922,0.647,1.459,0.809c0.535,0.162,1.064,0.242,1.586,0.242
		c0.501,0,0.996-0.072,1.486-0.216c0.489-0.144,0.941-0.339,1.355-0.585c0.351-0.198,0.676-0.411,0.977-0.637
		s0.547-0.421,0.74-0.585h0.429v3.676c-0.401,0.172-0.783,0.333-1.147,0.485c-0.365,0.152-0.747,0.283-1.147,0.393
		c-0.522,0.145-1.012,0.254-1.47,0.331C172.408,80.832,171.779,80.869,170.979,80.869z"/>
	<path fill="#FFFFFF" d="M192.146,68.169h-4.986v12.4h-4.117v-12.4h-4.987v-2.974h14.091V68.169z"/>
	<path fill="#FFFFFF" d="M203.258,80.57h-9.352v-2.726h2.616v-9.922h-2.616v-2.726h9.352v2.726h-2.617v9.922h2.617V80.57z"/>
	<path fill="#FFFFFF" d="M222.142,72.888c0,2.451-0.729,4.397-2.188,5.839c-1.458,1.442-3.475,2.164-6.048,2.164
		c-2.566,0-4.58-0.721-6.038-2.164c-1.458-1.442-2.188-3.388-2.188-5.839c0-2.471,0.729-4.424,2.188-5.859s3.472-2.153,6.038-2.153
		c2.559,0,4.571,0.718,6.037,2.153C221.408,68.463,222.142,70.417,222.142,72.888z M216.684,76.78c0.4-0.468,0.697-1.02,0.89-1.657
		c0.193-0.636,0.29-1.385,0.29-2.246c0-0.922-0.111-1.707-0.332-2.354c-0.223-0.647-0.512-1.17-0.869-1.569
		c-0.365-0.413-0.785-0.712-1.26-0.898c-0.477-0.186-0.971-0.279-1.486-0.279c-0.521,0-1.013,0.089-1.475,0.269
		c-0.461,0.179-0.885,0.475-1.27,0.888c-0.357,0.386-0.649,0.917-0.875,1.595c-0.225,0.678-0.338,1.465-0.338,2.359
		c0,0.916,0.109,1.695,0.328,2.339c0.217,0.644,0.506,1.168,0.863,1.575s0.775,0.706,1.254,0.898
		c0.479,0.193,0.982,0.289,1.512,0.289s1.033-0.098,1.513-0.294S216.326,77.193,216.684,76.78z"/>
	<path fill="#FFFFFF" d="M239.804,80.57h-3.968l-6.777-10.552V80.57h-3.775V65.195h4.923l5.823,8.808v-8.808h3.774V80.57z"/>
	<path fill="#FFFFFF" d="M256.662,75.738c0,1.514-0.667,2.745-2,3.691c-1.334,0.947-3.145,1.42-5.432,1.42
		c-1.323,0-2.477-0.112-3.459-0.335s-1.903-0.508-2.762-0.852v-3.686h0.451c0.851,0.654,1.803,1.156,2.857,1.507
		s2.068,0.527,3.041,0.527c0.25,0,0.578-0.021,0.986-0.062c0.407-0.042,0.74-0.11,0.997-0.207c0.314-0.124,0.573-0.279,0.777-0.465
		c0.204-0.186,0.306-0.461,0.306-0.826c0-0.337-0.148-0.628-0.445-0.873s-0.73-0.432-1.303-0.563
		c-0.601-0.137-1.234-0.267-1.903-0.387c-0.669-0.12-1.296-0.273-1.882-0.459c-1.345-0.419-2.312-0.989-2.901-1.708
		c-0.589-0.719-0.884-1.612-0.884-2.68c0-1.432,0.666-2.6,2-3.505c1.332-0.905,3.047-1.357,5.141-1.357
		c1.052,0,2.09,0.098,3.116,0.294c1.025,0.196,1.914,0.442,2.665,0.738v3.542h-0.439c-0.645-0.496-1.432-0.91-2.365-1.244
		c-0.934-0.333-1.886-0.5-2.857-0.5c-0.344,0-0.686,0.022-1.024,0.067c-0.34,0.045-0.667,0.129-0.981,0.253
		c-0.279,0.104-0.519,0.26-0.719,0.47c-0.199,0.21-0.3,0.449-0.3,0.718c0,0.406,0.161,0.718,0.482,0.935s0.929,0.415,1.823,0.593
		c0.586,0.117,1.148,0.231,1.689,0.341c0.539,0.11,1.12,0.262,1.742,0.455c1.223,0.385,2.125,0.91,2.707,1.575
		C256.37,73.815,256.662,74.678,256.662,75.738z"/>
</g>
<rect x="112.388" y="117.707" fill="none" width="129.943" height="28.195"/>
<g enable-background="new    ">
	<path fill="#FFFFFF" d="M124.806,129.76h-2.976l-5.083-7.915v7.915h-2.831v-11.531h3.691l4.367,6.605v-6.605h2.831V129.76z"/>
	<path fill="#FFFFFF" d="M136.935,125.416c0,1.43-0.433,2.557-1.299,3.38c-0.866,0.824-2.082,1.235-3.647,1.235
		c-1.566,0-2.782-0.412-3.647-1.235c-0.866-0.823-1.299-1.95-1.299-3.38c0-1.44,0.436-2.571,1.307-3.392
		c0.872-0.821,2.084-1.231,3.64-1.231c1.576,0,2.795,0.413,3.655,1.239C136.504,122.858,136.935,123.986,136.935,125.416z
		 M133.372,127.53c0.188-0.222,0.328-0.489,0.422-0.801c0.094-0.312,0.141-0.745,0.141-1.297c0-0.511-0.048-0.939-0.145-1.285
		c-0.096-0.346-0.23-0.622-0.402-0.829c-0.172-0.212-0.378-0.361-0.62-0.449c-0.241-0.088-0.501-0.132-0.78-0.132
		s-0.527,0.036-0.744,0.108c-0.217,0.073-0.425,0.217-0.624,0.434c-0.177,0.201-0.317,0.478-0.422,0.828
		c-0.104,0.352-0.157,0.793-0.157,1.324c0,0.475,0.046,0.887,0.137,1.235c0.091,0.349,0.225,0.628,0.402,0.84
		c0.171,0.201,0.376,0.349,0.615,0.441s0.511,0.139,0.816,0.139c0.263,0,0.513-0.042,0.752-0.127
		C133.003,127.875,133.205,127.731,133.372,127.53z"/>
	<path fill="#FFFFFF" d="M145.556,123.72h-0.257c-0.123-0.042-0.321-0.072-0.594-0.093c-0.273-0.021-0.5-0.031-0.682-0.031
		c-0.412,0-0.776,0.026-1.091,0.077c-0.316,0.052-0.656,0.14-1.019,0.264v5.823h-2.904v-8.696h2.904v1.278
		c0.636-0.527,1.19-0.876,1.661-1.049c0.471-0.173,0.904-0.26,1.3-0.26c0.102,0,0.217,0.003,0.345,0.008
		c0.128,0.005,0.241,0.013,0.337,0.023V123.72z"/>
	<path fill="#FFFFFF" d="M156.021,123.596v6.164h-2.904v-4.344c0-0.423-0.011-0.784-0.032-1.081
		c-0.021-0.297-0.081-0.538-0.177-0.724c-0.096-0.186-0.243-0.321-0.438-0.406c-0.196-0.085-0.47-0.128-0.824-0.128
		c-0.284,0-0.561,0.056-0.828,0.167c-0.269,0.111-0.51,0.229-0.724,0.353v6.164h-2.903v-8.696h2.903v0.96
		c0.498-0.376,0.975-0.671,1.43-0.883c0.456-0.211,0.958-0.317,1.51-0.317c0.595,0,1.119,0.128,1.575,0.383
		c0.455,0.255,0.811,0.631,1.068,1.127c0.578-0.47,1.14-0.839,1.686-1.107c0.546-0.269,1.082-0.403,1.606-0.403
		c0.975,0,1.715,0.281,2.221,0.844c0.506,0.562,0.758,1.373,0.758,2.432v5.661h-2.903v-4.344c0-0.429-0.009-0.79-0.028-1.084
		c-0.019-0.294-0.076-0.534-0.173-0.72c-0.091-0.186-0.236-0.321-0.434-0.406c-0.199-0.085-0.478-0.128-0.836-0.128
		c-0.241,0-0.478,0.04-0.708,0.12S156.353,123.41,156.021,123.596z"/>
	<path fill="#FFFFFF" d="M170.096,128.839c-0.156,0.113-0.35,0.25-0.58,0.41c-0.23,0.16-0.447,0.287-0.65,0.379
		c-0.285,0.124-0.58,0.216-0.885,0.275c-0.307,0.06-0.641,0.089-1.006,0.089c-0.857,0-1.576-0.256-2.155-0.767
		c-0.579-0.511-0.868-1.164-0.868-1.959c0-0.635,0.146-1.154,0.441-1.557c0.295-0.402,0.713-0.72,1.255-0.952
		c0.536-0.232,1.201-0.397,1.995-0.496c0.793-0.098,1.616-0.17,2.469-0.217v-0.047c0-0.48-0.203-0.812-0.611-0.995
		c-0.408-0.183-1.008-0.275-1.802-0.275c-0.478,0-0.986,0.082-1.528,0.244c-0.541,0.163-0.93,0.288-1.166,0.375h-0.266v-2.099
		c0.307-0.077,0.803-0.169,1.492-0.275c0.689-0.105,1.379-0.159,2.071-0.159c1.646,0,2.835,0.244,3.567,0.732
		c0.731,0.488,1.098,1.253,1.098,2.296v5.917h-2.871V128.839z M170.096,127.485v-1.806c-0.393,0.031-0.815,0.073-1.271,0.127
		c-0.455,0.054-0.801,0.117-1.037,0.189c-0.289,0.087-0.511,0.215-0.664,0.382c-0.152,0.167-0.229,0.387-0.229,0.66
		c0,0.18,0.016,0.327,0.048,0.44s0.112,0.221,0.241,0.324c0.123,0.103,0.271,0.179,0.442,0.228s0.439,0.073,0.804,0.073
		c0.29,0,0.584-0.057,0.881-0.17C169.608,127.82,169.87,127.671,170.096,127.485z"/>
	<path fill="#FFFFFF" d="M178.532,129.76h-2.903v-12.05h2.903V129.76z"/>
	<path fill="#FFFFFF" d="M197.297,126.229c0,0.558-0.117,1.056-0.351,1.495s-0.554,0.803-0.961,1.092
		c-0.472,0.341-0.991,0.583-1.557,0.728s-1.282,0.217-2.151,0.217h-5.228v-11.531h4.648c0.966,0,1.672,0.031,2.12,0.093
		c0.447,0.062,0.891,0.199,1.33,0.411c0.456,0.222,0.795,0.52,1.018,0.895c0.223,0.374,0.334,0.801,0.334,1.281
		c0,0.558-0.152,1.049-0.459,1.476c-0.305,0.426-0.736,0.757-1.295,0.995v0.062c0.783,0.149,1.404,0.459,1.862,0.929
		S197.297,125.46,197.297,126.229z M193.34,121.49c0-0.191-0.051-0.382-0.149-0.573c-0.099-0.191-0.274-0.333-0.526-0.426
		c-0.226-0.083-0.506-0.128-0.841-0.135c-0.335-0.008-0.806-0.012-1.411-0.012h-0.29v2.439h0.482c0.487,0,0.903-0.007,1.247-0.023
		c0.343-0.016,0.613-0.067,0.812-0.155c0.278-0.119,0.461-0.272,0.547-0.461S193.34,121.737,193.34,121.49z M194.087,126.183
		c0-0.367-0.073-0.649-0.221-0.848s-0.397-0.347-0.751-0.445c-0.24-0.067-0.572-0.103-0.994-0.108
		c-0.424-0.005-0.865-0.008-1.324-0.008h-0.675v2.873h0.225c0.866,0,1.487-0.002,1.862-0.008c0.375-0.005,0.72-0.072,1.035-0.201
		c0.321-0.129,0.542-0.301,0.662-0.515C194.027,126.708,194.087,126.461,194.087,126.183z"/>
	<path fill="#FFFFFF" d="M204.904,128.839c-0.155,0.113-0.348,0.25-0.578,0.41c-0.23,0.16-0.448,0.287-0.652,0.379
		c-0.283,0.124-0.578,0.216-0.885,0.275c-0.305,0.06-0.641,0.089-1.005,0.089c-0.858,0-1.577-0.256-2.155-0.767
		c-0.579-0.511-0.869-1.164-0.869-1.959c0-0.635,0.147-1.154,0.443-1.557c0.294-0.402,0.713-0.72,1.254-0.952
		c0.536-0.232,1.201-0.397,1.994-0.496c0.794-0.098,1.617-0.17,2.47-0.217v-0.047c0-0.48-0.204-0.812-0.611-0.995
		c-0.407-0.183-1.009-0.275-1.802-0.275c-0.477,0-0.986,0.082-1.527,0.244c-0.542,0.163-0.932,0.288-1.167,0.375h-0.265v-2.099
		c0.305-0.077,0.803-0.169,1.491-0.275c0.688-0.105,1.38-0.159,2.071-0.159c1.646,0,2.835,0.244,3.566,0.732
		c0.732,0.488,1.098,1.253,1.098,2.296v5.917h-2.871V128.839z M204.904,127.485v-1.806c-0.391,0.031-0.814,0.073-1.271,0.127
		c-0.456,0.054-0.802,0.117-1.037,0.189c-0.29,0.087-0.511,0.215-0.663,0.382c-0.153,0.167-0.23,0.387-0.23,0.66
		c0,0.18,0.017,0.327,0.049,0.44s0.113,0.221,0.241,0.324c0.124,0.103,0.271,0.179,0.442,0.228s0.439,0.073,0.805,0.073
		c0.289,0,0.583-0.057,0.881-0.17C204.418,127.82,204.68,127.671,204.904,127.485z"/>
	<path fill="#FFFFFF" d="M213.342,129.76h-2.904v-12.05h2.904V129.76z"/>
	<path fill="#FFFFFF" d="M218.972,129.76h-2.903v-12.05h2.903V129.76z"/>
</g>
<rect x="112.388" y="160.346" fill="none" width="129.943" height="28.195"/>
<g enable-background="new    ">
	<path fill="#FFFFFF" d="M122.498,163.099h-5.509v2.145h5.107v2.23h-5.107v4.925h-3.072v-11.531h8.582V163.099z"/>
	<path fill="#FFFFFF" d="M129.937,171.478c-0.156,0.113-0.349,0.25-0.579,0.41c-0.23,0.16-0.448,0.287-0.651,0.379
		c-0.284,0.124-0.579,0.216-0.885,0.275c-0.306,0.06-0.641,0.089-1.005,0.089c-0.858,0-1.577-0.256-2.155-0.767
		c-0.579-0.511-0.869-1.164-0.869-1.959c0-0.635,0.147-1.154,0.442-1.557c0.294-0.402,0.713-0.72,1.254-0.952
		c0.536-0.232,1.201-0.397,1.995-0.496s1.617-0.17,2.469-0.217v-0.047c0-0.48-0.204-0.812-0.611-0.995
		c-0.408-0.183-1.008-0.275-1.802-0.275c-0.477,0-0.986,0.082-1.528,0.244s-0.931,0.288-1.167,0.375h-0.265v-2.099
		c0.306-0.077,0.803-0.169,1.492-0.275c0.689-0.105,1.379-0.159,2.071-0.159c1.646,0,2.835,0.244,3.567,0.732
		s1.098,1.253,1.098,2.296v5.917h-2.871V171.478z M129.937,170.124v-1.806c-0.392,0.031-0.815,0.073-1.271,0.127
		c-0.456,0.054-0.801,0.117-1.037,0.189c-0.29,0.087-0.511,0.215-0.664,0.382c-0.153,0.167-0.229,0.387-0.229,0.66
		c0,0.18,0.016,0.327,0.048,0.44s0.113,0.221,0.241,0.324c0.124,0.103,0.271,0.179,0.442,0.228s0.439,0.073,0.804,0.073
		c0.29,0,0.583-0.057,0.881-0.17S129.712,170.31,129.937,170.124z"/>
	<path fill="#FFFFFF" d="M143.321,169.642c0,0.898-0.418,1.623-1.255,2.172s-1.981,0.825-3.434,0.825
		c-0.805,0-1.534-0.073-2.188-0.217c-0.654-0.145-1.18-0.305-1.576-0.48v-2.292h0.265c0.145,0.098,0.312,0.205,0.503,0.321
		s0.459,0.241,0.808,0.375c0.3,0.119,0.641,0.221,1.021,0.306c0.381,0.085,0.788,0.127,1.223,0.127c0.568,0,0.989-0.061,1.263-0.182
		c0.273-0.122,0.41-0.301,0.41-0.539c0-0.211-0.081-0.365-0.241-0.46c-0.161-0.096-0.466-0.187-0.917-0.275
		c-0.214-0.046-0.505-0.097-0.873-0.151s-0.701-0.12-1.001-0.197c-0.82-0.207-1.429-0.528-1.826-0.964
		c-0.397-0.437-0.595-0.98-0.595-1.63c0-0.836,0.412-1.532,1.235-2.087c0.823-0.555,1.947-0.833,3.374-0.833
		c0.675,0,1.323,0.066,1.942,0.197c0.62,0.132,1.104,0.272,1.452,0.422v2.199h-0.25c-0.429-0.284-0.918-0.515-1.468-0.693
		c-0.55-0.178-1.106-0.267-1.669-0.267c-0.466,0-0.859,0.062-1.178,0.186c-0.319,0.124-0.479,0.299-0.479,0.526
		c0,0.207,0.072,0.364,0.217,0.473c0.145,0.108,0.485,0.217,1.021,0.325c0.295,0.057,0.613,0.112,0.953,0.167
		c0.341,0.054,0.683,0.123,1.026,0.205c0.761,0.191,1.324,0.492,1.689,0.902C143.138,168.515,143.321,169.028,143.321,169.642z"/>
	<path fill="#FFFFFF" d="M151.018,172.322c-0.311,0.077-0.641,0.138-0.989,0.182c-0.349,0.043-0.775,0.065-1.279,0.065
		c-1.126,0-1.964-0.219-2.514-0.658c-0.549-0.439-0.824-1.19-0.824-2.253v-4.066h-1.19v-1.889h1.19v-2.486h2.903v2.486h2.703v1.889
		h-2.703v3.087c0,0.305,0.003,0.571,0.008,0.799s0.048,0.432,0.128,0.613c0.075,0.181,0.207,0.324,0.396,0.431
		c0.19,0.106,0.467,0.159,0.83,0.159c0.15,0,0.346-0.031,0.589-0.093s0.413-0.119,0.509-0.17h0.241V172.322z"/>
	<path fill="#FFFFFF" d="M168.784,168.868c0,0.558-0.116,1.056-0.351,1.495c-0.232,0.439-0.553,0.803-0.961,1.092
		c-0.472,0.341-0.99,0.583-1.557,0.728c-0.564,0.145-1.282,0.217-2.15,0.217h-5.228v-11.531h4.648c0.966,0,1.672,0.031,2.12,0.093
		c0.447,0.062,0.892,0.199,1.331,0.411c0.455,0.222,0.795,0.52,1.018,0.895c0.223,0.374,0.334,0.801,0.334,1.281
		c0,0.558-0.153,1.049-0.459,1.476c-0.306,0.426-0.737,0.757-1.295,0.995v0.062c0.783,0.149,1.403,0.459,1.861,0.929
		C168.555,167.479,168.784,168.099,168.784,168.868z M164.827,164.128c0-0.191-0.05-0.382-0.149-0.573
		c-0.099-0.191-0.274-0.333-0.526-0.426c-0.226-0.083-0.505-0.128-0.841-0.135c-0.335-0.008-0.805-0.012-1.411-0.012h-0.29v2.439
		h0.482c0.488,0,0.904-0.007,1.247-0.023s0.614-0.067,0.812-0.155c0.278-0.119,0.461-0.272,0.547-0.461
		S164.827,164.376,164.827,164.128z M165.574,168.821c0-0.367-0.072-0.649-0.221-0.848c-0.146-0.199-0.396-0.347-0.75-0.445
		c-0.24-0.067-0.572-0.103-0.995-0.108c-0.423-0.005-0.864-0.008-1.324-0.008h-0.675v2.873h0.225c0.867,0,1.488-0.002,1.863-0.008
		c0.374-0.005,0.719-0.072,1.035-0.201c0.32-0.129,0.541-0.301,0.662-0.515C165.515,169.347,165.574,169.1,165.574,168.821z"/>
	<path fill="#FFFFFF" d="M176.393,171.478c-0.156,0.113-0.349,0.25-0.579,0.41c-0.23,0.16-0.448,0.287-0.651,0.379
		c-0.284,0.124-0.579,0.216-0.885,0.275c-0.306,0.06-0.641,0.089-1.006,0.089c-0.857,0-1.576-0.256-2.154-0.767
		c-0.58-0.511-0.869-1.164-0.869-1.959c0-0.635,0.146-1.154,0.442-1.557c0.294-0.402,0.713-0.72,1.255-0.952
		c0.535-0.232,1.201-0.397,1.994-0.496s1.617-0.17,2.469-0.217v-0.047c0-0.48-0.203-0.812-0.611-0.995
		c-0.407-0.183-1.008-0.275-1.801-0.275c-0.478,0-0.986,0.082-1.528,0.244s-0.931,0.288-1.167,0.375h-0.265v-2.099
		c0.306-0.077,0.803-0.169,1.491-0.275c0.689-0.105,1.38-0.159,2.072-0.159c1.646,0,2.834,0.244,3.566,0.732
		s1.098,1.253,1.098,2.296v5.917h-2.871V171.478z M176.393,170.124v-1.806c-0.392,0.031-0.814,0.073-1.271,0.127
		c-0.455,0.054-0.801,0.117-1.037,0.189c-0.289,0.087-0.51,0.215-0.663,0.382c-0.153,0.167-0.229,0.387-0.229,0.66
		c0,0.18,0.016,0.327,0.049,0.44c0.031,0.113,0.112,0.221,0.24,0.324c0.124,0.103,0.271,0.179,0.443,0.228
		c0.171,0.049,0.439,0.073,0.804,0.073c0.29,0,0.583-0.057,0.881-0.17S176.168,170.31,176.393,170.124z"/>
	<path fill="#FFFFFF" d="M184.83,172.399h-2.904v-12.05h2.904V172.399z"/>
	<path fill="#FFFFFF" d="M190.46,172.399h-2.903v-12.05h2.903V172.399z"/>
</g>
<rect x="112.388" y="204.494" fill="none" width="129.943" height="28.195"/>
<g enable-background="new    ">
	<path fill="#FFFFFF" d="M123.503,212.923c0,1.136-0.5,2.059-1.5,2.769c-1,0.709-2.358,1.064-4.074,1.064
		c-0.992,0-1.856-0.084-2.594-0.251c-0.737-0.168-1.428-0.381-2.071-0.639v-2.765h0.338c0.638,0.491,1.353,0.868,2.144,1.131
		s1.551,0.395,2.28,0.395c0.188,0,0.434-0.016,0.74-0.046c0.306-0.031,0.555-0.083,0.748-0.155c0.236-0.093,0.43-0.209,0.583-0.348
		c0.153-0.14,0.229-0.346,0.229-0.62c0-0.253-0.111-0.471-0.334-0.654s-0.548-0.324-0.977-0.422c-0.451-0.104-0.926-0.2-1.428-0.291
		s-0.972-0.205-1.412-0.345c-1.008-0.315-1.733-0.742-2.175-1.282c-0.442-0.539-0.664-1.209-0.664-2.009c0-1.074,0.5-1.95,1.5-2.629
		c1-0.679,2.285-1.018,3.856-1.018c0.788,0,1.567,0.074,2.336,0.221s1.436,0.332,1.999,0.554v2.656h-0.33
		c-0.482-0.372-1.074-0.683-1.773-0.933s-1.415-0.376-2.144-0.376c-0.257,0-0.514,0.017-0.768,0.05
		c-0.255,0.034-0.5,0.097-0.736,0.19c-0.209,0.078-0.389,0.195-0.539,0.353c-0.15,0.157-0.225,0.337-0.225,0.538
		c0,0.305,0.121,0.538,0.362,0.701s0.697,0.311,1.367,0.445c0.44,0.088,0.862,0.173,1.267,0.255c0.405,0.083,0.84,0.196,1.307,0.341
		c0.917,0.29,1.594,0.683,2.031,1.181C123.284,211.481,123.503,212.128,123.503,212.923z"/>
	<path fill="#FFFFFF" d="M128.361,216.547h-2.904v-12.05h2.904V216.547z"/>
	<path fill="#FFFFFF" d="M140.321,212.203c0,1.43-0.433,2.557-1.299,3.38c-0.866,0.824-2.082,1.235-3.647,1.235
		c-1.566,0-2.782-0.412-3.647-1.235c-0.866-0.823-1.299-1.95-1.299-3.38c0-1.44,0.436-2.571,1.307-3.392
		c0.872-0.821,2.084-1.231,3.64-1.231c1.576,0,2.795,0.413,3.655,1.239C139.891,209.645,140.321,210.772,140.321,212.203z
		 M136.758,214.316c0.188-0.222,0.328-0.489,0.422-0.801c0.094-0.312,0.141-0.745,0.141-1.297c0-0.511-0.048-0.939-0.145-1.285
		c-0.096-0.346-0.23-0.622-0.402-0.829c-0.172-0.212-0.378-0.361-0.62-0.449c-0.241-0.088-0.501-0.132-0.78-0.132
		s-0.527,0.036-0.744,0.108c-0.217,0.073-0.425,0.217-0.624,0.434c-0.177,0.201-0.317,0.478-0.422,0.828
		c-0.104,0.352-0.157,0.793-0.157,1.324c0,0.475,0.046,0.887,0.137,1.235c0.091,0.349,0.225,0.628,0.402,0.84
		c0.171,0.201,0.376,0.349,0.615,0.441s0.511,0.139,0.816,0.139c0.263,0,0.513-0.042,0.752-0.127
		C136.389,214.661,136.591,214.518,136.758,214.316z"/>
	<path fill="#FFFFFF" d="M156.8,207.851l-2.799,8.696h-3.074l-1.84-5.862l-1.818,5.862h-3.104l-2.775-8.696h3.038l1.55,5.994
		l1.927-5.994h2.566l1.832,5.994l1.525-5.994H156.8z"/>
	<path fill="#FFFFFF" d="M174.567,213.016c0,0.558-0.116,1.056-0.351,1.495c-0.232,0.439-0.553,0.803-0.961,1.092
		c-0.472,0.341-0.99,0.583-1.557,0.728c-0.564,0.145-1.282,0.217-2.15,0.217h-5.229v-11.531h4.648c0.966,0,1.672,0.031,2.12,0.093
		c0.447,0.062,0.892,0.199,1.331,0.411c0.455,0.222,0.795,0.52,1.018,0.895c0.223,0.374,0.334,0.801,0.334,1.281
		c0,0.558-0.153,1.049-0.459,1.476c-0.306,0.426-0.737,0.757-1.295,0.995v0.062c0.783,0.149,1.403,0.459,1.861,0.929
		C174.338,211.627,174.567,212.247,174.567,213.016z M170.61,208.276c0-0.191-0.05-0.382-0.149-0.573
		c-0.099-0.191-0.274-0.333-0.526-0.426c-0.226-0.083-0.505-0.128-0.841-0.135c-0.335-0.008-0.805-0.012-1.411-0.012h-0.29v2.439
		h0.482c0.488,0,0.904-0.007,1.247-0.023s0.614-0.067,0.812-0.155c0.278-0.119,0.461-0.272,0.547-0.461
		S170.61,208.524,170.61,208.276z M171.357,212.969c0-0.367-0.072-0.649-0.221-0.848c-0.146-0.199-0.396-0.347-0.75-0.445
		c-0.24-0.067-0.572-0.103-0.995-0.108c-0.423-0.005-0.864-0.008-1.324-0.008h-0.675v2.873h0.225c0.867,0,1.488-0.002,1.863-0.008
		c0.374-0.005,0.719-0.072,1.035-0.201c0.32-0.129,0.541-0.301,0.662-0.515C171.298,213.495,171.357,213.248,171.357,212.969z"/>
	<path fill="#FFFFFF" d="M182.176,215.625c-0.156,0.113-0.349,0.25-0.579,0.41c-0.23,0.16-0.448,0.287-0.651,0.379
		c-0.284,0.124-0.579,0.216-0.885,0.275c-0.306,0.06-0.641,0.089-1.006,0.089c-0.857,0-1.576-0.256-2.154-0.767
		c-0.58-0.511-0.869-1.164-0.869-1.959c0-0.635,0.146-1.154,0.442-1.557c0.294-0.402,0.713-0.72,1.255-0.952
		c0.535-0.232,1.201-0.397,1.994-0.496s1.617-0.17,2.469-0.217v-0.047c0-0.48-0.203-0.812-0.611-0.995
		c-0.407-0.183-1.008-0.275-1.801-0.275c-0.478,0-0.986,0.082-1.528,0.244s-0.931,0.288-1.167,0.375h-0.265v-2.099
		c0.306-0.077,0.803-0.169,1.491-0.275c0.689-0.105,1.38-0.159,2.072-0.159c1.646,0,2.834,0.244,3.566,0.732
		s1.098,1.253,1.098,2.296v5.917h-2.871V215.625z M182.176,214.272v-1.806c-0.392,0.031-0.814,0.073-1.271,0.127
		c-0.455,0.054-0.801,0.117-1.037,0.189c-0.289,0.087-0.51,0.215-0.663,0.382c-0.153,0.167-0.229,0.387-0.229,0.66
		c0,0.18,0.016,0.327,0.049,0.44c0.031,0.113,0.112,0.221,0.24,0.324c0.124,0.103,0.271,0.179,0.443,0.228
		c0.171,0.049,0.439,0.073,0.804,0.073c0.29,0,0.583-0.057,0.881-0.17S181.951,214.458,182.176,214.272z"/>
	<path fill="#FFFFFF" d="M190.613,216.547h-2.904v-12.05h2.904V216.547z"/>
	<path fill="#FFFFFF" d="M196.242,216.547h-2.903v-12.05h2.903V216.547z"/>
</g>
<rect x="112.388" y="246.883" fill="none" width="129.943" height="28.195"/>
<g enable-background="new    ">
	<path fill="#FFFFFF" d="M120.39,258.936h-7.013v-2.045h1.962v-7.441h-1.962v-2.045h7.013v2.045h-1.962v7.441h1.962V258.936z"/>
	<path fill="#FFFFFF" d="M131.819,258.936h-2.903v-4.313c0-0.351-0.019-0.7-0.056-1.05c-0.038-0.348-0.102-0.604-0.193-0.77
		c-0.107-0.191-0.264-0.33-0.47-0.418c-0.207-0.088-0.495-0.133-0.865-0.133c-0.263,0-0.529,0.042-0.8,0.125
		c-0.271,0.082-0.564,0.214-0.88,0.395v6.164h-2.904v-8.696h2.904v0.96c0.514-0.387,1.008-0.684,1.481-0.891
		c0.474-0.206,1-0.31,1.579-0.31c0.975,0,1.736,0.274,2.285,0.821s0.823,1.365,0.823,2.455V258.936z"/>
	<path fill="#FFFFFF" d="M143.578,250.239l-3.482,8.696h-3.282l-3.458-8.696h3.057l2.096,5.985l2.069-5.985H143.578z"/>
	<path fill="#FFFFFF" d="M148.17,249h-3.064v-2.114h3.064V249z M148.09,258.936h-2.904v-8.696h2.904V258.936z"/>
	<path fill="#FFFFFF" d="M159.889,258.936h-2.903v-4.313c0-0.351-0.019-0.7-0.056-1.05c-0.038-0.348-0.102-0.604-0.193-0.77
		c-0.107-0.191-0.264-0.33-0.47-0.418c-0.207-0.088-0.495-0.133-0.865-0.133c-0.263,0-0.529,0.042-0.8,0.125
		c-0.271,0.082-0.564,0.214-0.88,0.395v6.164h-2.904v-8.696h2.904v0.96c0.514-0.387,1.008-0.684,1.481-0.891
		c0.474-0.206,1-0.31,1.579-0.31c0.975,0,1.736,0.274,2.285,0.821s0.823,1.365,0.823,2.455V258.936z"/>
	<path fill="#FFFFFF" d="M167.256,259.168c-0.788,0-1.508-0.09-2.159-0.271c-0.651-0.18-1.219-0.459-1.701-0.836
		c-0.478-0.377-0.847-0.852-1.11-1.425c-0.263-0.573-0.394-1.244-0.394-2.014c0-0.811,0.141-1.51,0.422-2.099
		c0.282-0.588,0.675-1.076,1.179-1.463c0.488-0.367,1.051-0.636,1.688-0.807c0.638-0.17,1.3-0.255,1.987-0.255
		c0.616,0,1.185,0.064,1.705,0.194c0.52,0.129,1.005,0.297,1.455,0.502v2.378h-0.409c-0.112-0.093-0.248-0.201-0.405-0.325
		c-0.158-0.124-0.353-0.245-0.583-0.363c-0.22-0.114-0.46-0.209-0.723-0.283s-0.567-0.112-0.915-0.112
		c-0.771,0-1.364,0.236-1.779,0.708c-0.415,0.473-0.623,1.114-0.623,1.925c0,0.837,0.213,1.472,0.639,1.905s1.029,0.65,1.812,0.65
		c0.364,0,0.692-0.04,0.983-0.12c0.292-0.08,0.534-0.175,0.727-0.282c0.183-0.104,0.344-0.212,0.482-0.326
		c0.139-0.113,0.268-0.225,0.386-0.332h0.409v2.377c-0.455,0.207-0.932,0.371-1.428,0.492S167.856,259.168,167.256,259.168z"/>
	<path fill="#FFFFFF" d="M175.227,249h-3.064v-2.114h3.064V249z M175.146,258.936h-2.904v-8.696h2.904V258.936z"/>
	<path fill="#FFFFFF" d="M187.299,254.467c0,1.369-0.393,2.484-1.177,3.346c-0.784,0.862-1.763,1.293-2.937,1.293
		c-0.503,0-0.945-0.051-1.325-0.154s-0.741-0.253-1.084-0.449l-0.121,0.434h-2.782v-12.05h2.903v4.259
		c0.444-0.34,0.897-0.616,1.361-0.828c0.464-0.211,0.997-0.317,1.603-0.317c1.141,0,2.02,0.396,2.635,1.188
		C186.99,251.98,187.299,253.073,187.299,254.467z M184.314,254.525c0-0.773-0.136-1.368-0.408-1.786
		c-0.273-0.417-0.76-0.626-1.461-0.626c-0.273,0-0.554,0.04-0.843,0.119c-0.288,0.08-0.564,0.195-0.826,0.345v4.36
		c0.208,0.072,0.406,0.121,0.594,0.147c0.187,0.026,0.411,0.038,0.674,0.038c0.765,0,1.335-0.216,1.71-0.648
		C184.128,256.041,184.314,255.392,184.314,254.525z"/>
	<path fill="#FFFFFF" d="M194.859,258.014c-0.156,0.113-0.349,0.251-0.579,0.41c-0.23,0.16-0.448,0.287-0.651,0.38
		c-0.284,0.124-0.579,0.216-0.885,0.274c-0.306,0.061-0.641,0.09-1.006,0.09c-0.857,0-1.576-0.256-2.154-0.767
		c-0.58-0.511-0.869-1.164-0.869-1.96c0-0.635,0.146-1.153,0.442-1.557c0.294-0.402,0.713-0.72,1.255-0.951
		c0.535-0.232,1.201-0.398,1.994-0.496s1.617-0.17,2.469-0.217v-0.047c0-0.48-0.203-0.812-0.611-0.995
		c-0.407-0.183-1.008-0.274-1.801-0.274c-0.478,0-0.986,0.081-1.528,0.244c-0.542,0.162-0.931,0.287-1.167,0.375h-0.265v-2.099
		c0.306-0.077,0.803-0.169,1.491-0.274c0.689-0.105,1.38-0.159,2.072-0.159c1.646,0,2.834,0.244,3.566,0.731
		c0.732,0.488,1.098,1.254,1.098,2.297v5.916h-2.871V258.014z M194.859,256.66v-1.806c-0.392,0.03-0.814,0.073-1.271,0.128
		c-0.455,0.053-0.801,0.117-1.037,0.188c-0.289,0.087-0.51,0.215-0.663,0.382c-0.153,0.168-0.229,0.388-0.229,0.66
		c0,0.18,0.016,0.327,0.049,0.44c0.031,0.113,0.112,0.222,0.24,0.324c0.124,0.103,0.271,0.179,0.443,0.228
		c0.171,0.049,0.439,0.073,0.804,0.073c0.29,0,0.583-0.057,0.881-0.17S194.635,256.846,194.859,256.66z"/>
	<path fill="#FFFFFF" d="M203.297,258.936h-2.904v-12.05h2.904V258.936z"/>
	<path fill="#FFFFFF" d="M208.926,258.936h-2.903v-12.05h2.903V258.936z"/>
</g>
<rect x="112.388" y="299.657" fill="none" width="129.943" height="28.195"/>
<g enable-background="new    ">
	<path fill="#FFFFFF" d="M123.286,302.41h-3.74v9.3h-3.088v-9.3h-3.74v-2.23h10.568V302.41z"/>
	<path fill="#FFFFFF" d="M130.452,310.789c-0.156,0.113-0.349,0.25-0.579,0.41s-0.448,0.286-0.651,0.379
		c-0.284,0.124-0.579,0.216-0.885,0.275c-0.306,0.059-0.641,0.089-1.005,0.089c-0.858,0-1.577-0.256-2.155-0.767
		c-0.579-0.512-0.869-1.164-0.869-1.959c0-0.635,0.147-1.154,0.442-1.557c0.294-0.402,0.713-0.721,1.254-0.953
		c0.536-0.232,1.201-0.396,1.995-0.495s1.617-0.171,2.469-0.217v-0.047c0-0.479-0.204-0.812-0.611-0.995s-1.008-0.275-1.802-0.275
		c-0.477,0-0.986,0.082-1.528,0.244c-0.542,0.163-0.931,0.289-1.167,0.376h-0.265v-2.099c0.306-0.077,0.803-0.169,1.492-0.275
		c0.689-0.105,1.379-0.158,2.071-0.158c1.646,0,2.835,0.244,3.567,0.732c0.732,0.487,1.098,1.253,1.098,2.295v5.917h-2.871V310.789z
		 M130.452,309.436v-1.807c-0.392,0.031-0.815,0.073-1.271,0.127c-0.456,0.055-0.801,0.117-1.037,0.189
		c-0.29,0.088-0.511,0.215-0.664,0.383c-0.153,0.166-0.229,0.387-0.229,0.659c0,0.181,0.016,0.327,0.048,0.44
		s0.113,0.221,0.241,0.324c0.124,0.103,0.271,0.179,0.442,0.228s0.439,0.073,0.804,0.073c0.29,0,0.583-0.057,0.881-0.17
		S130.227,309.621,130.452,309.436z"/>
	<path fill="#FFFFFF" d="M142.532,305.67h-0.257c-0.123-0.041-0.321-0.072-0.594-0.094c-0.273-0.02-0.5-0.03-0.682-0.03
		c-0.412,0-0.776,0.026-1.091,0.077c-0.316,0.052-0.656,0.14-1.019,0.264v5.823h-2.904v-8.696h2.904v1.277
		c0.636-0.526,1.19-0.876,1.661-1.049c0.471-0.174,0.904-0.26,1.3-0.26c0.102,0,0.217,0.003,0.345,0.008
		c0.128,0.006,0.241,0.014,0.337,0.023V305.67z"/>
	<path fill="#FFFFFF" d="M152.956,310.711c0,0.816-0.121,1.502-0.362,2.061c-0.241,0.557-0.579,0.993-1.013,1.309
		c-0.435,0.319-0.958,0.551-1.573,0.692c-0.614,0.142-1.307,0.214-2.079,0.214c-0.627,0-1.246-0.037-1.854-0.109
		c-0.609-0.072-1.136-0.16-1.581-0.264v-2.176h0.354c0.354,0.135,0.784,0.258,1.293,0.368c0.508,0.11,0.963,0.167,1.365,0.167
		c0.535,0,0.97-0.049,1.305-0.144c0.334-0.096,0.59-0.231,0.767-0.407c0.166-0.164,0.286-0.377,0.361-0.635
		c0.075-0.258,0.112-0.567,0.112-0.93v-0.162c-0.348,0.273-0.734,0.49-1.157,0.65s-0.894,0.24-1.414,0.24
		c-1.264,0-2.239-0.366-2.924-1.1c-0.686-0.732-1.028-1.848-1.028-3.346c0-0.717,0.104-1.336,0.313-1.857s0.503-0.977,0.884-1.363
		c0.353-0.361,0.789-0.643,1.305-0.844c0.517-0.202,1.046-0.303,1.586-0.303c0.487,0,0.931,0.056,1.33,0.166
		c0.399,0.111,0.762,0.266,1.088,0.461l0.105-0.387h2.814V310.711z M150.052,308.969v-3.941c-0.166-0.067-0.369-0.121-0.61-0.159
		s-0.458-0.058-0.65-0.058c-0.76,0-1.33,0.21-1.709,0.631s-0.57,1.008-0.57,1.762c0,0.836,0.162,1.42,0.486,1.75
		c0.323,0.33,0.804,0.496,1.44,0.496c0.289,0,0.572-0.045,0.851-0.133C149.568,309.229,149.822,309.113,150.052,308.969z"/>
	<path fill="#FFFFFF" d="M164.586,307.877h-6.627c0.043,0.682,0.312,1.203,0.809,1.564c0.496,0.361,1.227,0.541,2.192,0.541
		c0.611,0,1.203-0.105,1.777-0.316c0.573-0.212,1.026-0.439,1.359-0.682h0.321v2.238c-0.654,0.252-1.271,0.436-1.85,0.549
		s-1.22,0.171-1.923,0.171c-1.812,0-3.201-0.393-4.166-1.177c-0.965-0.785-1.447-1.902-1.447-3.354c0-1.436,0.457-2.572,1.371-3.411
		s2.167-1.259,3.76-1.259c1.468,0,2.574,0.357,3.314,1.072c0.739,0.716,1.109,1.744,1.109,3.086V307.877z M161.707,306.242
		c-0.017-0.583-0.166-1.021-0.451-1.316c-0.283-0.294-0.727-0.441-1.327-0.441c-0.558,0-1.016,0.14-1.375,0.418
		c-0.359,0.279-0.56,0.727-0.603,1.34H161.707z"/>
	<path fill="#FFFFFF" d="M172.403,311.633c-0.312,0.078-0.641,0.139-0.989,0.182c-0.349,0.044-0.775,0.066-1.279,0.066
		c-1.125,0-1.963-0.22-2.514-0.658c-0.549-0.439-0.824-1.19-0.824-2.254v-4.066h-1.189v-1.889h1.189v-2.486h2.904v2.486h2.702v1.889
		h-2.702v3.088c0,0.305,0.002,0.57,0.008,0.799c0.006,0.227,0.048,0.432,0.129,0.612c0.074,0.181,0.207,0.324,0.396,0.431
		c0.189,0.105,0.467,0.158,0.83,0.158c0.149,0,0.346-0.03,0.589-0.092c0.243-0.062,0.413-0.119,0.509-0.171h0.241V311.633z"/>
</g>
<ellipse fill="#808080" cx="83.387" cy="307.859" rx="18.882" ry="17.961"/>
<ellipse fill="#999999" cx="83.387" cy="307.859" rx="11.133" ry="10.59"/>
<ellipse fill="#CCCCCC" cx="83.387" cy="307.859" rx="8.404" ry="7.994"/>
<ellipse fill="#00FF00" cx="83.387" cy="293.635" rx="2.401" ry="2.284"/>
<ellipse fill="#00FF00" cx="98.449" cy="307.755" rx="2.401" ry="2.284"/>
<ellipse fill="#00FF00" cx="83.387" cy="321.668" rx="2.401" ry="2.284"/>
<ellipse fill="#00FF00" cx="68.106" cy="307.755" rx="2.401" ry="2.284"/>
<ellipse fill="#00FF00" cx="72.691" cy="297.373" rx="2.401" ry="2.284"/>
<ellipse fill="#00FF00" cx="94.738" cy="297.373" rx="2.401" ry="2.284"/>
<ellipse fill="#00FF00" cx="72.254" cy="317.722" rx="2.401" ry="2.284"/>
<ellipse fill="#00FF00" cx="94.52" cy="317.93" rx="2.401" ry="2.284"/>
</svg>
